# xmcd
#
# Track frame offsets:
#  150
#  11770
#  21470
#  31355
#  44277
#  54875
#  67947
#  80480
#  93635
#  102167
#  117072
#  129707
#  143260
#  158102
#  173860
#  191177
#  200817
#  213602
#  225965
#  234680
#  247350
#  260447
#  272242
#  284755
#
# Disc length: 3957 seconds
#
# Revision: 0
# Processed by: cddbd v1.5.1PL2 Copyright (c) Steve Scherf et al.
# Submitted via: Collectorz.com_Music_Collector 6.10
#
DISCID=640f7318
DTITLE=Reg Lindsay - Country Picking
DYEAR=1992
DGENRE=Country
TTITLE0=The Wayward
TTITLE1=Geisha Girl
TTITLE2=Let's Be Sweetheats Again
TTITLE3=The House Down Willow Lane
TTITLE4=Where No One Stands Alone
TTITLE5=The Girl In My Home Town
TTITLE6=Beautifgul Memories Beautiful Dreams
TTITLE7=Will There Be Any Stars In My Crown
TTITLE8=South Pacific Shore
TTITLE9=Dark As A Dungeon
TTITLE10=When The Wagon Was New
TTITLE11=From Forty To Sixty Five
TTITLE12=Driftwood On The River
TTITLE13=Twenty One Years
TTITLE14=The Country Sound
TTITLE15=Lonely Road
TTITLE16=Blue Velvet Band
TTITLE17=Teardrop On A Rose
TTITLE18=The Bridge Washed Out
TTITLE19=Dad's Violin
TTITLE20=Slip Away
TTITLE21=Good Old Country Picking
TTITLE22=Country Music
TTITLE23=Simple Song
EXTD=
EXTT0=
EXTT1=
EXTT2=
EXTT3=
EXTT4=
EXTT5=
EXTT6=
EXTT7=
EXTT8=
EXTT9=
EXTT10=
EXTT11=
EXTT12=
EXTT13=
EXTT14=
EXTT15=
EXTT16=
EXTT17=
EXTT18=
EXTT19=
EXTT20=
EXTT21=
EXTT22=
EXTT23=
PLAYORDER=
